<svg xmlns="http://www.w3.org/2000/svg" viewBox="0 0 221.97 69"><path fill="#fd5a20" d="M.02 34.72C0 38.71 3.57 39.8 5.33 36.3c2.94-5.87 10.27-8.24 18.69-6.88 7.34 1.19-20.9-16.14-24 5.3z"/><path fill="#fdbf45" d="M42.82 14.13a13.79 13.79 0 0 0-5.26-5.72 1.49 1.49 0 0 1 .3-.47 1.8 1.8 0 0 0 .43-1.82 1.52 1.52 0 0 1 .26-1.34 1.72 1.72 0 0 0 .33-1.43 1.49 1.49 0 0 1 .12-.92c.3-.67.69-1.83-.1-2.26-.94-.5-2.17.68-2.65 1.7a1.48 1.48 0 0 1-.75.74 2.58 2.58 0 0 0-1.4 1.52 1.49 1.49 0 0 1-.86.97 2.59 2.59 0 0 0-1.33 1.23 25.7 25.7 0 0 0-14.03 1.78 29.89 29.89 0 0 0-12.75 9.84A26.38 26.38 0 0 0 .02 34.72a5.65 5.65 0 0 1 3-4.01 16.92 16.92 0 0 1 6.27-1.87 43.7 43.7 0 0 1 7.97-.19 64.39 64.39 0 0 1 8.09 1 19.52 19.52 0 0 0 9.2-.27 13.57 13.57 0 0 0 6.2-3.76 11.33 11.33 0 0 0 2.86-5.63 9.33 9.33 0 0 0-.79-5.86z"/><path fill="#fa9837" d="M25.35 29.66c10.1 1.92 16.54-3.13 18.07-8.82-7.13 14.87-19.84 4.3-34.78 5-5.05.24-7.99-1.6-2.75-8.88A26.39 26.39 0 0 0 .02 34.72c1.1-7 15.16-6.99 25.33-5.06z"/><path fill="#a30011" d="M51.32 6.26c-3.44-2-6.18.54-4.02 3.81 3.6 5.49 1.98 13.01-3.41 19.62-4.7 5.76 24.43-10 7.43-23.43z"/><path fill="#f33d96" d="M66.08 33.18c3.64-2.84 3.17-4.46-.5-4.84a29 29 0 0 0-2.3-9.26A26.38 26.38 0 0 0 51.31 6.26a5.64 5.64 0 0 1 1.97 4.6 16.92 16.92 0 0 1-1.52 6.37 43.7 43.7 0 0 1-3.83 7 64.39 64.39 0 0 1-4.93 6.5 19.52 19.52 0 0 0-4.37 8.1 13.57 13.57 0 0 0 .16 7.25 11.33 11.33 0 0 0 3.43 5.3 9.33 9.33 0 0 0 5.48 2.25 14.48 14.48 0 0 0 11.87-5.16 20.46 20.46 0 0 0 2.09-2.8 2.02 2.02 0 0 1 .68-.66c6.37-3.8 7.14-5.9 3.08-6.28 5.66-3.62 5.6-5.47.65-5.55z"/><path fill="#e10d66" d="M43.01 30.72c-6.72 7.79-5.57 15.89-1.42 20.06-9.29-13.62 6.23-19.32 13.1-32.6 2.32-4.5 5.38-6.12 9.06 2.07A26.39 26.39 0 0 0 51.32 6.26c5.5 4.47-1.54 16.63-8.3 24.46z"/><path fill="#1f9175" d="M50.27 64.85c3.46-2 2.61-5.63-1.3-5.39-6.55.4-12.28-4.74-15.33-12.7C31 39.8 30.17 72.91 50.27 64.84z"/><path fill="#7ef4c3" d="M45.3 64.27a16.92 16.92 0 0 1-4.76-4.49 43.7 43.7 0 0 1-4.17-6.8 64.38 64.38 0 0 1-3.19-7.5l-.19-.52c2.17-1.61 2.94-2.89 2.25-3.78-.59-.75-2.24-1.22-5.01-1.37a16.65 16.65 0 0 0-1.9-2.16 13.57 13.57 0 0 0-6.37-3.46 11.33 11.33 0 0 0-6.3.35 9.33 9.33 0 0 0-4.68 3.62 14.24 14.24 0 0 0-1.8 11.65c-1.62 2.23-2.3 3.81-2.08 4.74.25 1.1 1.74 1.3 4.37.63a27.55 27.55 0 0 0 6.82 7.57 29.89 29.89 0 0 0 14.92 6.1 26.38 26.38 0 0 0 17.06-4 5.64 5.64 0 0 1-4.97-.58z"/><path fill="#4cd69e" d="M33.18 45.48c-3.41-9.7-11.01-12.74-16.7-11.2 16.44-1.3 13.67 15 21.78 27.57 2.74 4.25 2.63 7.7-6.3 6.83a26.39 26.39 0 0 0 18.31-3.83c-6.6 2.55-13.65-9.6-17.09-19.37z"/><path d="M117.65 25.57a14.85 14.85 0 0 1 1.27-1.39 8.4 8.4 0 0 1 1.7-1.25 9.58 9.58 0 0 1 2.24-.9 11.21 11.21 0 0 1 2.93-.35 12.61 12.61 0 0 1 3.24.42 7.36 7.36 0 0 1 2.78 1.39 6.9 6.9 0 0 1 1.92 2.52 9.07 9.07 0 0 1 .72 3.82V46.9h-9.63V32.74a5.22 5.22 0 0 0-.6-2.57 2.45 2.45 0 0 0-2.36-1.08 3.69 3.69 0 0 0-1.66.34 4.22 4.22 0 0 0-1.18.86 3.29 3.29 0 0 0-.72 1.13 4.53 4.53 0 0 0-.28 1.23V46.9h-9.62V22.15h.34a13.3 13.3 0 0 1 8.91 3.42zM192.06 26.29a7.98 7.98 0 0 0-2.04-2.53 9.05 9.05 0 0 0-2.8-1.55 9.43 9.43 0 0 0-3.07-.53 10.22 10.22 0 0 0-4.24.93 11.29 11.29 0 0 0-3.4 2.27v-10.4a2.14 2.14 0 0 0-.57-1.82 13.3 13.3 0 0 0-8.14-2.78h-.91V46.9h.91a13.3 13.3 0 0 0 8.14-2.78l.3-.23a14.11 14.11 0 0 0 1.22 1.34 6.93 6.93 0 0 0 1.53 1.11 8.49 8.49 0 0 0 1.94.75 10.26 10.26 0 0 0 2.52.27 11.78 11.78 0 0 0 3.66-.55 8.85 8.85 0 0 0 2.98-1.62 7.66 7.66 0 0 0 2.01-2.62 8.12 8.12 0 0 0 .74-3.54v-9.25a7.43 7.43 0 0 0-.78-3.5zm-8.84 10.57q0 3.56-2.96 3.56a3.67 3.67 0 0 1-2.75-1.02 3.08 3.08 0 0 1-1-2.17v-5a3.24 3.24 0 0 1 .26-1.22 3.69 3.69 0 0 1 .76-1.16 4.13 4.13 0 0 1 1.25-.88 3.88 3.88 0 0 1 1.66-.35 2.39 2.39 0 0 1 2.13.95 4.87 4.87 0 0 1 .65 2.75zM196.76 26.7a8.01 8.01 0 0 1 2.01-2.7 9.03 9.03 0 0 1 2.98-1.72 10.94 10.94 0 0 1 3.66-.6 10.36 10.36 0 0 1 2.4.26 7.45 7.45 0 0 1 1.9.71 8.97 8.97 0 0 1 1.5 1.04 9.6 9.6 0 0 1 1.23 1.28l.86-.57a13.3 13.3 0 0 1 7.4-2.25h1.27V46.9h-1.27a13.3 13.3 0 0 1-7.4-2.25l-.86-.57a9.78 9.78 0 0 1-3.42 2.36 10.7 10.7 0 0 1-4.3.92 10.24 10.24 0 0 1-3.08-.48 8.81 8.81 0 0 1-2.8-1.46 7.62 7.62 0 0 1-2.04-2.43 7.16 7.16 0 0 1-.78-3.45V30.3a8.43 8.43 0 0 1 .74-3.59zm13.32 13.38a4.14 4.14 0 0 0 1.25-.88 3.68 3.68 0 0 0 .77-1.16 3.24 3.24 0 0 0 .25-1.23v-5.23a3.17 3.17 0 0 0-1.09-2 3.7 3.7 0 0 0-2.66-.96q-2.96 0-2.96 3.57v4.53a4.87 4.87 0 0 0 .65 2.75 2.39 2.39 0 0 0 2.13.95 3.88 3.88 0 0 0 1.66-.34zM163.72 36.17v-5a7.6 7.6 0 0 0-.98-3.77 9.45 9.45 0 0 0-2.7-3.01 13.5 13.5 0 0 0-4.1-1.99 17.43 17.43 0 0 0-5.09-.72 16.65 16.65 0 0 0-5.3.81 13.36 13.36 0 0 0-4.18 2.22 10.43 10.43 0 0 0-2.76 3.31 8.73 8.73 0 0 0-1 4.12v5.78a7.69 7.69 0 0 0 1.17 4.28 9.29 9.29 0 0 0 3.03 2.92 14.48 14.48 0 0 0 4.3 1.69 22.47 22.47 0 0 0 5.02.55 19.7 19.7 0 0 0 5.14-.62 12.74 12.74 0 0 0 3.98-1.78 8.45 8.45 0 0 0 2.56-2.73 6.76 6.76 0 0 0 .45-.94 12.25 12.25 0 0 0-8.06-3.04v.32q0 2.08-3.8 2.08a5.52 5.52 0 0 1-3.14-.71 2.82 2.82 0 0 1-1.02-2.48v-1.3zm-15.7-7.04a3.57 3.57 0 0 1 2.97-1.02 3.68 3.68 0 0 1 2.82.88 3.4 3.4 0 0 1 .79 2.36v.23h-7.36a3.9 3.9 0 0 1 .79-2.45zM105.22 36.17v-5a7.6 7.6 0 0 0-.97-3.77 9.45 9.45 0 0 0-2.7-3.01 13.5 13.5 0 0 0-4.1-1.99 17.43 17.43 0 0 0-5.09-.72 16.65 16.65 0 0 0-5.3.81 13.36 13.36 0 0 0-4.18 2.22 10.43 10.43 0 0 0-2.76 3.31 8.73 8.73 0 0 0-1 4.12v5.78a7.69 7.69 0 0 0 1.16 4.28 9.29 9.29 0 0 0 3.04 2.92 14.48 14.48 0 0 0 4.3 1.69 22.47 22.47 0 0 0 5.02.55 19.7 19.7 0 0 0 5.14-.62 12.74 12.74 0 0 0 3.97-1.78 8.45 8.45 0 0 0 2.57-2.73 6.76 6.76 0 0 0 .45-.94 12.25 12.25 0 0 0-8.06-3.04v.32q0 2.08-3.8 2.08a5.52 5.52 0 0 1-3.14-.71 2.82 2.82 0 0 1-1.02-2.48v-1.3zm-15.68-7.04a3.57 3.57 0 0 1 2.96-1.02 3.68 3.68 0 0 1 2.82.88 3.4 3.4 0 0 1 .79 2.36v.23h-7.36a3.9 3.9 0 0 1 .79-2.45z" fill="#FFF"/></svg>
